{"title":"The Genius of Phtography 2007 DVDRip Legendado PT-BR","uid":14802689,"size":5043834061,"categoryP":"video","categoryS":"tv_shows","magnet":"?xt=urn:btih:ea57625ff2894fd3f19feecd274dcff92f1d1559&amp;dn=The+Genius+of+Phtography+2007+DVDRip+Legendado+PT-BR&amp;tr=udp%3A%2F%2Ftracker.leechers-paradise.org%3A6969&amp;tr=udp%3A%2F%2Fzer0day.ch%3A1337&amp;tr=udp%3A%2F%2Fopen.demonii.com%3A1337&amp;tr=udp%3A%2F%2Ftracker.coppersurfer.tk%3A6969&amp;tr=udp%3A%2F%2Fexodus.desync.com%3A6969","seeders":15,"leechers":1,"uploader":null,"files":6,"time":1465140295,"description":"Audio: English\r\nLegendas/subtitles: Português / English (MKV track)\r\n\r\n=====================================================\r\n\r\nEp 1 – Fixing the Shadows\r\nEp 2 – Documents for Artists\r\nEp 3 – Right Time, Right Place\r\nEp 4 – Paper Movies\r\nEp 5 – We are Family\r\nEp 6 – Snap Judgements\r\n\r\nThe Genius Of Photography is the BBC’s most comprehensive look at one of the world’s most influential art forms – exploring every aspect of photography from daguerreotype to digital.\r\nIn the course of our 170 year relationship, photography has delighted us, served us, moved us, outraged us and occasionally disappointed us. But mainly, it has intrigued us by showing the secret strangeness that lies beneath the world of appearances. And that is photography's true genius.\r\nFollow the story of photography in BBC Four's six-part series 'The Genius of Photography'. See some of the most famous photographs ever taken and find out more about what made them so very special. Featuring many of the greatest photographs ever taken – and the photographers who took them – this new, six-part series looks at the history of photography, from Man Ray and Walker Evans to more contemporary geniuses such as Richard Avedon, Sally Mann and Martin Parr.\r\n\r\n=======================================================\r\n\r\nThe Genius Of Photography é o mais abrangente olhar sobre uma das mais influentes formas de arte, exploranto todos os aspectos da fotografia desde o daguereótipo ao digital.\r\nNo curso de 170 anos de relacionamento, a fotografia alegrou-nos, serviu-nos, ultrajou-nos e ocasionalmente decepcionou-nos. Mas principalmente, intrigou-nos ao mostrar a estranheza secreta que reside abaixo do mundo das aparências. E esse é o verdadeiro mérito da fotografia.\r\nEstão presentes as melhores fotografias já tiradas (e seus fotógrafos) e ficamos sabendo o que as tornam tão especiais.\r\nOs seis episódios analisam a história da fotografia, desde Man Ray e Walker Evans até os gênios mais contemporâneos como Richar Avedon, Sally Mann e Martin Parr.\r\n\r\n=======================================================\r\n\r\nVideo\r\nID                             : 1\r\nFormat                         : AVC\r\nFormat/Info                    : Advanced Video Codec\r\nFormat profile                 :   \r\nFormat settings, CABAC         : Yes\r\nFormat settings, ReFrames      : 9 frames\r\nCodec ID                       : V_MPEG4/ISO/AVC\r\nDuration                       : 58mn 58s\r\nBit rate                       : 1 485 Kbps\r\nWidth                          : 710 pixels\r\nHeight                         : 568 pixels\r\nDisplay aspect ratio           : 16:9\r\nOriginal display aspect ratio  : 16:9\r\nFrame rate mode                : Constant\r\nFrame rate                     : 25.000 fps\r\nColor space                    : YUV\r\nChroma subsampling             : 4:2:0\r\nBit depth                      : 8 bits\r\nScan type                      : Progressive\r\nBits/(Pixel*Frame)             : 0.147\r\nStream size                    : 626 MiB (87%)\r\n\r\n\r\nAudio\r\nID                             : 2\r\nFormat                         : AC-3\r\nFormat/Info                    : Audio Coding 3\r\nMode extension                 : CM (complete main)\r\nFormat settings, Endianness    : Big\r\nCodec ID                       : A_AC3\r\nDuration                       : 58mn 58s\r\nBit rate mode                  : Constant\r\nBit rate                       : 192 Kbps\r\nChannel(s)                     : 2 channels\r\nChannel positions              : Front: L R\r\nSampling rate                  : 48.0 KHz\r\nBit depth                      : 16 bits\r\nCompression mode               : Lossy\r\nStream size                    : 81.0 MiB (11%)\r\nLanguage                       : English\r\nDefault                        : Yes\r\nForced                         : No\r\n\r\nText #1\r\nID                             : 3\r\nFormat                         : UTF-8\r\nCodec ID                       : S_TEXT/UTF8\r\nCodec ID/Info                  : UTF-8 Plain Text\r\nLanguage                       : Portuguese\r\nDefault                        : Yes\r\nForced                         : No\r\n\r\nText #2\r\nID                             : 4\r\nFormat                         : UTF-8\r\nCodec ID                       : S_TEXT/UTF8\r\nCodec ID/Info                  : UTF-8 Plain Text\r\nLanguage                       : English\r\nDefault                        : No\r\nForced                         : No","torrent":{"xt":"urn:btih:ea57625ff2894fd3f19feecd274dcff92f1d1559","amp;dn":"The+Genius+of+Phtography+2007+DVDRip+Legendado+PT-BR","amp;tr":["udp%3A%2F%2Ftracker.leechers-paradise.org%3A6969","udp%3A%2F%2Fzer0day.ch%3A1337","udp%3A%2F%2Fopen.demonii.com%3A1337","udp%3A%2F%2Ftracker.coppersurfer.tk%3A6969","udp%3A%2F%2Fexodus.desync.com%3A6969"],"infoHash":"ea57625ff2894fd3f19feecd274dcff92f1d1559","infoHashBuffer":{"type":"Buffer","data":[234,87,98,95,242,137,79,211,241,159,238,205,39,77,207,249,47,29,21,89]},"announce":[],"urlList":[]}}